<svg width="174" height="163" viewBox="0 0 174 163" fill="none" xmlns="http://www.w3.org/2000/svg">
<path d="M14.4344 97.2645L15.4746 97.1128L15.9395 96.1701L20.7006 86.5167C20.7007 86.5164 20.7009 86.5162 20.701 86.5159C20.7419 86.4334 20.7857 86.3972 20.8211 86.3763C20.8639 86.351 20.9242 86.3322 20.9962 86.3324C21.0683 86.3327 21.1318 86.3521 21.1787 86.3799C21.2185 86.4035 21.2619 86.4415 21.3003 86.5185C21.3005 86.5189 21.3006 86.5192 21.3008 86.5196L26.0605 96.1701L26.5254 97.1128L27.5656 97.2645L38.2188 98.8176L38.2202 98.8178C38.3072 98.8304 38.3551 98.8599 38.3876 98.8885C38.4264 98.9227 38.4638 98.9756 38.4862 99.0445C38.5085 99.1134 38.5094 99.1784 38.498 99.2292C38.4884 99.2718 38.4666 99.3246 38.4027 99.3869L38.4021 99.3874L30.6948 106.898L29.9414 107.632L30.1195 108.669L31.9422 119.277C31.9422 119.277 31.9422 119.277 31.9422 119.277C31.9577 119.368 31.9435 119.422 31.9274 119.459C31.9078 119.505 31.8702 119.555 31.8114 119.597C31.7524 119.64 31.6893 119.661 31.6354 119.666C31.5894 119.671 31.5341 119.665 31.4611 119.627L31.4607 119.627L21.9305 114.617L21 114.128L20.0695 114.617L10.5392 119.627L10.533 119.63C10.4606 119.668 10.4068 119.673 10.363 119.669C10.311 119.664 10.2489 119.644 10.19 119.601C10.1313 119.559 10.0931 119.508 10.073 119.461C10.0564 119.423 10.0423 119.368 10.0577 119.278C10.0577 119.277 10.0578 119.277 10.0578 119.277L11.8805 108.669L12.0586 107.632L11.3052 106.898L3.59788 99.3874L3.59731 99.3869C3.53338 99.3246 3.51155 99.2718 3.50197 99.2292C3.49056 99.1784 3.49144 99.1134 3.51379 99.0445C3.53615 98.9756 3.57355 98.9227 3.61235 98.8885C3.64486 98.8599 3.69283 98.8304 3.77978 98.8178L3.78123 98.8176L14.4344 97.2645Z" stroke="url(#paint0_linear_54_3)" stroke-width="4"/>
<path d="M111.338 142.862C111.738 143.262 112.387 143.262 112.788 142.862L113.512 142.137C113.913 141.737 113.913 141.088 113.512 140.688L111.224 138.4L113.511 136.112C113.912 135.711 113.912 135.062 113.511 134.662L112.787 133.937C112.387 133.537 111.738 133.537 111.337 133.937L107.6 137.675C107.199 138.075 107.199 138.724 107.6 139.125L111.338 142.862ZM117.489 142.138L118.213 142.863C118.613 143.263 119.262 143.263 119.663 142.863L123.4 139.125C123.801 138.725 123.801 138.076 123.4 137.675L119.663 133.938C119.262 133.538 118.613 133.538 118.213 133.938L117.489 134.663C117.088 135.063 117.088 135.712 117.489 136.112L119.776 138.4L117.489 140.688C117.088 141.089 117.088 141.738 117.489 142.138ZM134.975 152.75H119.442C119.395 154.019 118.5 154.8 117.345 154.8H113.45C112.253 154.8 111.335 153.681 111.351 152.75H96.025C95.4612 152.75 95 153.211 95 153.775V154.8C95 157.055 96.845 158.9 99.1 158.9H131.9C134.155 158.9 136 157.055 136 154.8V153.775C136 153.211 135.539 152.75 134.975 152.75ZM131.9 129.175C131.9 127.484 130.516 126.1 128.825 126.1H102.175C100.484 126.1 99.1 127.484 99.1 129.175V150.7H131.9V129.175ZM127.8 146.6H103.2V130.2H127.8V146.6Z" fill="url(#paint1_linear_54_3)"/>
<path d="M142 11.9852C146.5 3.16436 157 -4.85455 150 14.3908C142.249 35.7003 162.607 2.98634 169 1.96152C174 1.15883 152.5 28.4239 172.5 17.5984" stroke="#83DB83" stroke-width="2" stroke-linecap="round" stroke-linejoin="round"/>
<defs>
<linearGradient id="paint0_linear_54_3" x1="21" y1="84.3324" x2="21" y2="121.67" gradientUnits="userSpaceOnUse">
<stop stop-color="#FFC24A"/>
<stop offset="1" stop-color="#FFA800"/>
</linearGradient>
<linearGradient id="paint1_linear_54_3" x1="115.5" y1="126.1" x2="115.5" y2="158.9" gradientUnits="userSpaceOnUse">
<stop stop-color="#5B9DFF"/>
<stop offset="1" stop-color="#3485FF"/>
</linearGradient>
</defs>
</svg>
