<svg width="182" height="152" viewBox="0 0 182 152" fill="none" xmlns="http://www.w3.org/2000/svg">
<path d="M81.9073 113.631L77.1458 123.285L66.4927 124.839C64.5823 125.116 63.8167 127.471 65.2021 128.82L72.9094 136.33L71.0865 146.94C70.7583 148.857 72.7781 150.294 74.4698 149.397L84 144.388L93.5302 149.397C95.2219 150.286 97.2417 148.857 96.9135 146.94L95.0906 136.33L102.798 128.82C104.183 127.471 103.418 125.116 101.507 124.839L90.8542 123.285L86.0927 113.631C85.2396 111.91 82.7677 111.889 81.9073 113.631Z" fill="url(#paint0_linear_54_2)"/>
<path d="M161.5 42.2273C171.717 42.2273 180 35.5854 180 27.3923C180 19.1992 171.717 12.5573 161.5 12.5573C151.283 12.5573 143 19.1992 143 27.3923C143 35.5854 151.283 42.2273 161.5 42.2273Z" stroke="#FFD652" stroke-width="4"/>
<path d="M9.71408 14.0301V19.947L7.02806 19.97C3.15589 19.9929 1.45597e-07 23.0396 1.45597e-07 26.9398C-0.000188047 27.867 0.182062 28.7852 0.536341 29.6419C0.890619 30.4985 1.40998 31.2769 2.06477 31.9325C2.71955 32.5881 3.49692 33.1082 4.35247 33.463C5.20801 33.8177 6.12498 34.0002 7.05098 34C10.9002 34 14.0561 30.817 14.0561 26.9398V24.3177H19.9439V26.9398C19.9439 30.817 23.0998 34 26.9719 34C30.867 34 34 30.817 34 26.9398C34 23.0396 30.867 19.9929 26.9719 19.97L24.2859 19.947V14.0301H26.9719C30.867 14.0085 34 10.9375 34 7.03728C34.0004 6.11303 33.8188 5.19778 33.4658 4.34381C33.1127 3.48984 32.5951 2.71388 31.9424 2.06034C31.2897 1.40679 30.5148 0.888479 29.6619 0.534958C28.8091 0.181437 27.895 -0.000348369 26.9719 2.86454e-05C23.0998 2.86454e-05 19.9439 3.18301 19.9439 7.03728V9.6594H14.0561V7.03728C14.0561 3.18301 10.9002 2.86454e-05 7.05098 2.86454e-05C6.12622 -0.00261275 5.21003 0.177443 4.35487 0.52988C3.49971 0.882317 2.72238 1.40021 2.06741 2.0539C1.41244 2.7076 0.892693 3.48427 0.537934 4.33939C0.183174 5.19452 0.000373222 6.11131 1.45597e-07 7.03728C1.45597e-07 10.9375 3.15589 14.0085 7.02806 14.0301H9.71408ZM7.16272 9.70528C5.61844 9.70528 4.40937 8.51759 4.40937 7.06022C4.40937 5.58134 5.59552 4.39223 7.05098 4.39223C8.46061 4.39223 9.69259 5.60286 9.69259 7.17211V9.70528H7.16272ZM26.8373 9.70528H24.3103V7.17211C24.3103 5.60286 25.5423 4.39223 26.9748 4.39223C28.4288 4.39223 29.5921 5.58134 29.5921 7.06022C29.5921 8.51759 28.4059 9.70528 26.8387 9.70528H26.8373ZM14.079 19.97V14.0085H19.9439V19.97H14.079ZM7.16272 24.2732H9.69259V26.8064C9.69259 28.3742 8.46061 29.5849 7.05098 29.5849C6.70259 29.5837 6.35783 29.5138 6.03645 29.3792C5.71506 29.2445 5.42334 29.0477 5.17799 28.8C4.93264 28.5523 4.73846 28.2587 4.60657 27.9358C4.47469 27.6129 4.40767 27.2671 4.40937 26.9183C4.40937 25.4609 5.61844 24.2732 7.16272 24.2732ZM26.8373 24.2732C28.4045 24.2732 29.5906 25.4609 29.5906 26.9183C29.5906 28.3972 28.4274 29.5849 26.9719 29.5849C25.5394 29.5849 24.3074 28.3742 24.3074 26.8064V24.2732H26.8373Z" fill="#FF962E"/>
<defs>
<linearGradient id="paint0_linear_54_2" x1="84" y1="112.332" x2="84" y2="149.67" gradientUnits="userSpaceOnUse">
<stop stop-color="#FFC24A"/>
<stop offset="1" stop-color="#FFA800"/>
</linearGradient>
</defs>
</svg>
