<svg width="25" height="19" viewBox="0 0 25 19" fill="none" xmlns="http://www.w3.org/2000/svg">
<path d="M21.1945 1.6164C19.5648 0.871005 17.8339 0.327747 16.0273 0.0245361C15.7999 0.416189 15.5472 0.946804 15.3703 1.36373C13.4487 1.08578 11.541 1.08578 9.6459 1.36373C9.46901 0.946804 9.20369 0.416189 8.9889 0.0245361C7.16966 0.327747 5.43882 0.871005 3.82042 1.6164C0.548256 6.44253 -0.336118 11.1549 0.106068 15.8042C2.27909 17.3834 4.37633 18.3436 6.43692 18.9754C6.94227 18.2931 7.3971 17.5603 7.78875 16.7897C7.04335 16.5117 6.33585 16.1706 5.65362 15.7663C5.83049 15.64 6.00738 15.501 6.17162 15.3621C10.2903 17.2445 14.7513 17.2445 18.8193 15.3621C18.9962 15.501 19.1605 15.64 19.3374 15.7663C18.6551 16.1706 17.9476 16.5117 17.2022 16.7897C17.5939 17.5603 18.0487 18.2931 18.554 18.9754C20.6134 18.3436 22.7232 17.3834 24.8849 15.8042C25.4281 10.4222 24.0245 5.74771 21.1945 1.6164ZM8.35726 12.9363C7.11913 12.9363 6.10842 11.8119 6.10842 10.4349C6.10842 9.05778 7.09386 7.93331 8.35726 7.93331C9.60799 7.93331 10.6313 9.05778 10.606 10.4349C10.606 11.8119 9.60799 12.9363 8.35726 12.9363ZM16.659 12.9363C15.4208 12.9363 14.4088 11.8119 14.4088 10.4349C14.4088 9.05778 15.3956 7.93331 16.659 7.93331C17.9097 7.93331 18.9331 9.05778 18.9078 10.4349C18.9078 11.8119 17.9224 12.9363 16.659 12.9363Z" fill="black"/>
</svg>
