<svg width="25" height="25" viewBox="0 0 25 25" fill="none" xmlns="http://www.w3.org/2000/svg">
<path d="M12.5 0.5C9.24 0.5 8.83 0.515 7.55 0.57C6.275 0.63 5.4 0.835 4.64 1.13C3.83934 1.43157 3.11414 1.90423 2.515 2.515C1.90423 3.11414 1.43157 3.83934 1.13 4.64C0.83 5.4 0.63 6.275 0.57 7.55C0.515 8.83 0.5 9.24 0.5 12.5C0.5 15.75 0.515 16.165 0.57 17.44C0.63 18.72 0.835 19.59 1.13 20.355C1.43157 21.1557 1.90423 21.8809 2.515 22.48C3.11414 23.0908 3.83934 23.5634 4.64 23.865C5.4 24.16 6.275 24.365 7.55 24.42C8.83 24.48 9.24 24.49 12.5 24.49C15.75 24.49 16.165 24.48 17.44 24.42C18.72 24.36 19.59 24.16 20.355 23.865C21.1557 23.5634 21.8809 23.0908 22.48 22.48C23.0908 21.8809 23.5634 21.1557 23.865 20.355C24.16 19.59 24.365 18.72 24.42 17.44C24.48 16.165 24.49 15.755 24.49 12.495C24.49 9.24 24.48 8.83 24.42 7.55C24.36 6.275 24.16 5.4 23.865 4.64C23.5634 3.83934 23.0908 3.11414 22.48 2.515C21.8809 1.90423 21.1557 1.43157 20.355 1.13C19.59 0.83 18.72 0.63 17.44 0.57C15.7944 0.498862 14.147 0.475519 12.5 0.5ZM12.5 2.66C15.7 2.66 16.08 2.675 17.345 2.73C18.515 2.785 19.145 2.98 19.57 3.145C20.13 3.36 20.53 3.62 20.95 4.045C21.3489 4.4304 21.6564 4.90023 21.85 5.42C22.01 5.845 22.21 6.48 22.26 7.65C22.32 8.915 22.33 9.295 22.33 12.5C22.33 15.7 22.32 16.08 22.26 17.345C22.21 18.515 22.01 19.145 21.85 19.57C21.6571 20.0916 21.3495 20.5632 20.95 20.95C20.5632 21.3495 20.0916 21.6571 19.57 21.85C19.15 22.01 18.515 22.21 17.345 22.26C16.08 22.32 15.695 22.33 12.495 22.33C9.295 22.33 8.915 22.32 7.645 22.26C6.48 22.21 5.845 22.01 5.42 21.85C4.89844 21.6571 4.42684 21.3495 4.04 20.95C3.64049 20.5632 3.33293 20.0916 3.14 19.57C2.98 19.15 2.785 18.515 2.73 17.345C2.65956 15.7294 2.63622 14.112 2.66 12.495C2.66 9.295 2.675 8.915 2.73 7.645C2.785 6.48 2.98 5.845 3.145 5.42C3.33793 4.89844 3.64549 4.42684 4.045 4.04C4.4304 3.64112 4.90023 3.33359 5.42 3.14C5.845 2.98 6.48 2.785 7.65 2.73C8.915 2.675 9.295 2.66 12.5 2.66ZM12.5 6.335C10.8663 6.335 9.29945 6.984 8.14422 8.13922C6.989 9.29445 6.34 10.8613 6.34 12.495C6.34 14.1287 6.989 15.6956 8.14422 16.8508C9.29945 18.006 10.8663 18.655 12.5 18.655C14.1337 18.655 15.7006 18.006 16.8558 16.8508C18.011 15.6956 18.66 14.1287 18.66 12.495C18.66 10.8613 18.011 9.29445 16.8558 8.13922C15.7006 6.984 14.1337 6.335 12.5 6.335ZM12.5 16.5C11.4391 16.5 10.4217 16.0786 9.67157 15.3284C8.92143 14.5783 8.5 13.5609 8.5 12.5C8.5 11.4391 8.92143 10.4217 9.67157 9.67157C10.4217 8.92143 11.4391 8.5 12.5 8.5C13.5609 8.5 14.5783 8.92143 15.3284 9.67157C16.0786 10.4217 16.5 11.4391 16.5 12.5C16.5 13.5609 16.0786 14.5783 15.3284 15.3284C14.5783 16.0786 13.5609 16.5 12.5 16.5ZM20.34 6.1C20.34 5.71809 20.1883 5.35182 19.9182 5.08177C19.6482 4.81171 19.2819 4.66 18.9 4.66C18.5181 4.66 18.1518 4.81171 17.8818 5.08177C17.6117 5.35182 17.46 5.71809 17.46 6.1C17.46 6.48191 17.6117 6.84818 17.8818 7.11823C18.1518 7.38829 18.5181 7.54 18.9 7.54C19.2819 7.54 19.6482 7.38829 19.9182 7.11823C20.1883 6.84818 20.34 6.48191 20.34 6.1Z" fill="black"/>
</svg>
