<svg width="94" height="140" viewBox="0 0 94 94" fill="none" xmlns="http://www.w3.org/2000/svg">
<path d="M47 94C72.9574 94 94 72.9574 94 47C94 21.0426 72.9574 0 47 0C21.0426 0 0 21.0426 0 47C0 72.9574 21.0426 94 47 94Z" fill="url(#paint0_linear_26_182)"/>
<path d="M21.2749 46.5039C34.9763 40.5344 44.1128 36.5989 48.6842 34.6975C61.7366 29.2685 64.4488 28.3255 66.2165 28.294C66.6054 28.2875 67.4747 28.3838 68.0378 28.8408C68.5133 29.2266 68.6441 29.7478 68.7067 30.1136C68.7693 30.4794 68.8473 31.3127 68.7853 31.9638C68.078 39.3956 65.0175 57.4307 63.4604 65.7544C62.8016 69.2765 61.5043 70.4575 60.2484 70.573C57.519 70.8242 55.4465 68.7693 52.8029 67.0364C48.6663 64.3248 46.3294 62.6368 42.3141 59.9908C37.6737 56.9329 40.6819 55.2522 43.3264 52.5054C44.0185 51.7866 56.0442 40.8483 56.277 39.856C56.3061 39.7319 56.3331 39.2693 56.0583 39.0251C55.7835 38.7808 55.3779 38.8644 55.0852 38.9308C54.6703 39.0249 48.062 43.3928 35.2603 52.0343C33.3846 53.3223 31.6856 53.9499 30.1633 53.917C28.4852 53.8807 25.2571 52.9682 22.8574 52.1881C19.914 51.2313 17.5747 50.7255 17.7784 49.1006C17.8845 48.2542 19.05 47.3886 21.2749 46.5039Z" fill="white"/>
<defs>
<linearGradient id="paint0_linear_26_182" x1="47" y1="0" x2="47" y2="93.3025" gradientUnits="userSpaceOnUse">
<stop stop-color="#2AABEE"/>
<stop offset="1" stop-color="#229ED9"/>
</linearGradient>
</defs>
</svg>
